<svg width="1080" xmlns="http://www.w3.org/2000/svg" height="1049" id="screenshot-586a5e30-c2ab-8097-8008-5718d24e19d0" viewBox="0 0 1080 1049" xmlns:xlink="http://www.w3.org/1999/xlink" fill="none" version="1.1"><g id="shape-586a5e30-c2ab-8097-8008-5718d24e19d0"><defs><clipPath id="frame-clip-586a5e30-c2ab-8097-8008-5718d24e19d0-render-14" class="frame-clip frame-clip-def"><rect rx="0" ry="0" x="0" y="0" width="1080" height="1049" transform="matrix(1.000000, 0.000000, 0.000000, 1.000000, 0.000000, 0.000000)"/></clipPath></defs><g class="frame-container-wrapper"><g class="frame-container-blur"><g class="frame-container-shadows"><g clip-path="url(#frame-clip-586a5e30-c2ab-8097-8008-5718d24e19d0-render-14)" fill="none"><g class="fills" id="fills-586a5e30-c2ab-8097-8008-5718d24e19d0"><rect width="1080" height="1049" class="frame-background" x="0" transform="matrix(1.000000, 0.000000, 0.000000, 1.000000, 0.000000, 0.000000)" style="fill: rgb(255, 255, 255); fill-opacity: 1;" ry="0" rx="0" y="0"/></g><g class="frame-children"><g id="shape-586a5e30-c2ab-8097-8008-5719039f3a94"><g class="fills" id="fills-586a5e30-c2ab-8097-8008-5719039f3a94"><rect rx="0" ry="0" x="140" y="125.00000000000011" transform="matrix(1.000000, 0.000000, 0.000000, 1.000000, 0.000000, 0.000000)" width="799.9999999999999" height="800" style="fill: rgb(255, 0, 97); fill-opacity: 1;"/></g></g><g id="shape-586a5e30-c2ab-8097-8008-571945329552"><g class="frame-container-wrapper"><g class="frame-container-blur"><g class="frame-container-shadows"><g fill="none"><g class="fills" id="fills-586a5e30-c2ab-8097-8008-571945329552"><rect rx="0" ry="0" x="275.00000000000006" y="260.0000000000001" width="530" height="530" transform="matrix(1.000000, 0.000000, 0.000000, 1.000000, 0.000000, 0.000000)" class="frame-background"/></g><g class="frame-children"><g id="shape-586a5e30-c2ab-8097-8008-571945329556" style="opacity: 1;"><g class="fills" id="fills-586a5e30-c2ab-8097-8008-571945329556"><path d="M437.5,310L437.5,510L362.5,510L362.5,310L275,310L275,260L525,260L525,310L437.5,310L437.5,310" style="fill: rgb(255, 255, 255); fill-opacity: 1;"/></g><g id="strokes-a8c50ae5-2201-80bd-8008-571bfdca5253-586a5e30-c2ab-8097-8008-571945329556" class="strokes"><g class="stroke-shape"><path d="M437.5,310L437.5,510L362.5,510L362.5,310L275,310L275,260L525,260L525,310L437.5,310L437.5,310" style="fill: none; stroke-width: 0; stroke: rgb(0, 0, 0); stroke-opacity: 1;"/></g></g></g><g id="shape-586a5e30-c2ab-8097-8008-571945329555" style="opacity: 1;"><g class="fills" id="fills-586a5e30-c2ab-8097-8008-571945329555"><path d="M525,540L525,790L447.131103515625,790L348.7705078125,640L348.7705078125,790L275,790L275,540L352.868896484375,540L451.2294921875,690L451.2294921875,540L525,540L525,540" style="fill: rgb(255, 255, 255); fill-opacity: 1;"/></g><g id="strokes-a8c50ae5-2201-80bd-8008-571bfdcb42d1-586a5e30-c2ab-8097-8008-571945329555" class="strokes"><g class="stroke-shape"><path d="M525,540L525,790L447.131103515625,790L348.7705078125,640L348.7705078125,790L275,790L275,540L352.868896484375,540L451.2294921875,690L451.2294921875,540L525,540L525,540" style="fill: none; stroke-width: 0; stroke: rgb(0, 0, 0); stroke-opacity: 1;"/></g></g></g><g id="shape-586a5e30-c2ab-8097-8008-571945329554" style="opacity: 1;"><g class="fills" id="fills-586a5e30-c2ab-8097-8008-571945329554"><path d="M733.5712890625,439.577392578125L733.5712890625,260L805,260L805,439.577392578125C805,464.225341796875,798.716796875,482.124267578125,786.15087890625,493.274658203125C773.584716796875,504.4248046875,753.41259765625,510,725.634765625,510L725.634765625,510L634.3651123046875,510C606.5872802734375,510,586.415283203125,504.4248046875,573.8492431640625,493.274658203125C561.2830810546875,482.124267578125,555,464.225341796875,555,439.577392578125L555,439.577392578125L555,260L626.4285888671875,260L626.4285888671875,439.577392578125C626.4285888671875,453.6619873046875,634.3651123046875,460.7042236328125,650.238037109375,460.7042236328125L650.238037109375,460.7042236328125L709.761962890625,460.7042236328125C725.634765625,460.7042236328125,733.5712890625,453.6619873046875,733.5712890625,439.577392578125L733.5712890625,439.577392578125L733.5712890625,439.577392578125" style="fill: rgb(255, 255, 255); fill-opacity: 1;"/></g><g id="strokes-a8c50ae5-2201-80bd-8008-571bfdcc7f0f-586a5e30-c2ab-8097-8008-571945329554" class="strokes"><g class="stroke-shape"><path d="M733.5712890625,439.577392578125L733.5712890625,260L805,260L805,439.577392578125C805,464.225341796875,798.716796875,482.124267578125,786.15087890625,493.274658203125C773.584716796875,504.4248046875,753.41259765625,510,725.634765625,510L725.634765625,510L634.3651123046875,510C606.5872802734375,510,586.415283203125,504.4248046875,573.8492431640625,493.274658203125C561.2830810546875,482.124267578125,555,464.225341796875,555,439.577392578125L555,439.577392578125L555,260L626.4285888671875,260L626.4285888671875,439.577392578125C626.4285888671875,453.6619873046875,634.3651123046875,460.7042236328125,650.238037109375,460.7042236328125L650.238037109375,460.7042236328125L709.761962890625,460.7042236328125C725.634765625,460.7042236328125,733.5712890625,453.6619873046875,733.5712890625,439.577392578125L733.5712890625,439.577392578125L733.5712890625,439.577392578125" style="fill: none; stroke-width: 0; stroke: rgb(0, 0, 0); stroke-opacity: 1;"/></g></g></g><g id="shape-586a5e30-c2ab-8097-8008-571945329553" style="opacity: 1;"><g class="fills" id="fills-586a5e30-c2ab-8097-8008-571945329553"><path d="M805,740L805,790L555,790L555,540L805,540L805,590L636.0810546875,590L636.0810546875,638.2142333984375L768.9638671875,638.2142333984375L768.9638671875,688.21435546875L636.0810546875,688.21435546875L636.0810546875,740L805,740L805,740" style="fill: rgb(255, 255, 255); fill-opacity: 1;"/></g><g id="strokes-a8c50ae5-2201-80bd-8008-571bfdcd2815-586a5e30-c2ab-8097-8008-571945329553" class="strokes"><g class="stroke-shape"><path d="M805,740L805,790L555,790L555,540L805,540L805,590L636.0810546875,590L636.0810546875,638.2142333984375L768.9638671875,638.2142333984375L768.9638671875,688.21435546875L636.0810546875,688.21435546875L636.0810546875,740L805,740L805,740" style="fill: none; stroke-width: 0; stroke: rgb(0, 0, 0); stroke-opacity: 1;"/></g></g></g></g></g></g></g></g></g></g></g></g></g></g></g></svg>