<svg width="1080" xmlns="http://www.w3.org/2000/svg" height="1080" id="screenshot-fe9d6359-357e-802c-8008-56fac228f2a9" viewBox="0 0 1080 1080" xmlns:xlink="http://www.w3.org/1999/xlink" fill="none" version="1.1"><g id="shape-fe9d6359-357e-802c-8008-56fac228f2a9"><defs><clipPath id="frame-clip-fe9d6359-357e-802c-8008-56fac228f2a9-render-21" class="frame-clip frame-clip-def"><rect rx="0" ry="0" x="0" y="0" width="1080" height="1080" transform="matrix(1.000000, 0.000000, 0.000000, 1.000000, 0.000000, 0.000000)"/></clipPath></defs><g class="frame-container-wrapper"><g class="frame-container-blur"><g class="frame-container-shadows"><g clip-path="url(#frame-clip-fe9d6359-357e-802c-8008-56fac228f2a9-render-21)" fill="none"><g class="fills" id="fills-fe9d6359-357e-802c-8008-56fac228f2a9"><rect width="1080" height="1080" class="frame-background" x="0" transform="matrix(1.000000, 0.000000, 0.000000, 1.000000, 0.000000, 0.000000)" style="fill: rgb(0, 0, 0); fill-opacity: 1;" ry="0" rx="0" y="0"/></g><g class="frame-children"><g id="shape-6bd37016-aca4-80cc-8008-5706037f2b65"><g class="frame-container-wrapper"><g class="frame-container-blur"><g class="frame-container-shadows"><g fill="none"><g class="fills" id="fills-6bd37016-aca4-80cc-8008-5706037f2b65"><rect rx="0" ry="0" x="276" y="274.99999999999994" width="530" height="530" transform="matrix(1.000000, 0.000000, 0.000000, 1.000000, 0.000000, 0.000000)" class="frame-background"/></g><g class="frame-children"><g id="shape-6bd37016-aca4-80cc-8008-5706037f2b69" style="opacity: 1;"><g class="fills" id="fills-6bd37016-aca4-80cc-8008-5706037f2b69"><path d="M438.5,325L438.5,525L363.5,525L363.5,325L276,325L276,275L526,275L526,325L438.5,325L438.5,325" style="fill: rgb(255, 0, 97); fill-opacity: 1;"/></g><g id="strokes-a8c50ae5-2201-80bd-8008-571bfdd03179-6bd37016-aca4-80cc-8008-5706037f2b69" class="strokes"><g class="stroke-shape"><path d="M438.5,325L438.5,525L363.5,525L363.5,325L276,325L276,275L526,275L526,325L438.5,325L438.5,325" style="fill: none; stroke-width: 0; stroke: rgb(0, 0, 0); stroke-opacity: 1;"/></g></g></g><g id="shape-6bd37016-aca4-80cc-8008-5706037f2b68" style="opacity: 1;"><g class="fills" id="fills-6bd37016-aca4-80cc-8008-5706037f2b68"><path d="M526,555L526,805L448.131103515625,805L349.7705078125,655L349.7705078125,805L276,805L276,555L353.868896484375,555L452.2294921875,705L452.2294921875,555L526,555L526,555" style="fill: rgb(255, 0, 97); fill-opacity: 1;"/></g><g id="strokes-a8c50ae5-2201-80bd-8008-571bfdd1a8a0-6bd37016-aca4-80cc-8008-5706037f2b68" class="strokes"><g class="stroke-shape"><path d="M526,555L526,805L448.131103515625,805L349.7705078125,655L349.7705078125,805L276,805L276,555L353.868896484375,555L452.2294921875,705L452.2294921875,555L526,555L526,555" style="fill: none; stroke-width: 0; stroke: rgb(0, 0, 0); stroke-opacity: 1;"/></g></g></g><g id="shape-6bd37016-aca4-80cc-8008-5706037f2b67" style="opacity: 1;"><g class="fills" id="fills-6bd37016-aca4-80cc-8008-5706037f2b67"><path d="M734.5714111328125,454.57745361328125L734.5714111328125,275L806,275L806,454.57745361328125C806,479.225341796875,799.7169189453125,497.12432861328125,787.1507568359375,508.274658203125C774.584716796875,519.4248657226562,754.4127197265625,525,726.6348876953125,525L726.6348876953125,525L635.3651123046875,525C607.5872802734375,525,587.415283203125,519.4248657226562,574.8492431640625,508.274658203125C562.2830810546875,497.12432861328125,556,479.225341796875,556,454.57745361328125L556,454.57745361328125L556,275L627.4285888671875,275L627.4285888671875,454.57745361328125C627.4285888671875,468.6619567871094,635.3651123046875,475.7042236328125,651.238037109375,475.7042236328125L651.238037109375,475.7042236328125L710.761962890625,475.7042236328125C726.6348876953125,475.7042236328125,734.5714111328125,468.6619567871094,734.5714111328125,454.57745361328125L734.5714111328125,454.57745361328125L734.5714111328125,454.57745361328125" style="fill: rgb(255, 0, 97); fill-opacity: 1;"/></g><g id="strokes-a8c50ae5-2201-80bd-8008-571bfdd2610b-6bd37016-aca4-80cc-8008-5706037f2b67" class="strokes"><g class="stroke-shape"><path d="M734.5714111328125,454.57745361328125L734.5714111328125,275L806,275L806,454.57745361328125C806,479.225341796875,799.7169189453125,497.12432861328125,787.1507568359375,508.274658203125C774.584716796875,519.4248657226562,754.4127197265625,525,726.6348876953125,525L726.6348876953125,525L635.3651123046875,525C607.5872802734375,525,587.415283203125,519.4248657226562,574.8492431640625,508.274658203125C562.2830810546875,497.12432861328125,556,479.225341796875,556,454.57745361328125L556,454.57745361328125L556,275L627.4285888671875,275L627.4285888671875,454.57745361328125C627.4285888671875,468.6619567871094,635.3651123046875,475.7042236328125,651.238037109375,475.7042236328125L651.238037109375,475.7042236328125L710.761962890625,475.7042236328125C726.6348876953125,475.7042236328125,734.5714111328125,468.6619567871094,734.5714111328125,454.57745361328125L734.5714111328125,454.57745361328125L734.5714111328125,454.57745361328125" style="fill: none; stroke-width: 0; stroke: rgb(0, 0, 0); stroke-opacity: 1;"/></g></g></g><g id="shape-6bd37016-aca4-80cc-8008-5706037f2b66" style="opacity: 1;"><g class="fills" id="fills-6bd37016-aca4-80cc-8008-5706037f2b66"><path d="M806,755L806,805L556,805L556,555L806,555L806,605L637.0810546875,605L637.0810546875,653.2142333984375L769.9639892578125,653.2142333984375L769.9639892578125,703.2142944335938L637.0810546875,703.2142944335938L637.0810546875,755L806,755L806,755" style="fill: rgb(255, 0, 97); fill-opacity: 1;"/></g><g id="strokes-a8c50ae5-2201-80bd-8008-571bfdd48c4f-6bd37016-aca4-80cc-8008-5706037f2b66" class="strokes"><g class="stroke-shape"><path d="M806,755L806,805L556,805L556,555L806,555L806,605L637.0810546875,605L637.0810546875,653.2142333984375L769.9639892578125,653.2142333984375L769.9639892578125,703.2142944335938L637.0810546875,703.2142944335938L637.0810546875,755L806,755L806,755" style="fill: none; stroke-width: 0; stroke: rgb(0, 0, 0); stroke-opacity: 1;"/></g></g></g></g></g></g></g></g></g></g></g></g></g></g></g></svg>