<svg width="1080" xmlns="http://www.w3.org/2000/svg" height="1080" id="screenshot-12893237-054c-8056-8008-56fa6a317e58" viewBox="0 0 1080 1080" xmlns:xlink="http://www.w3.org/1999/xlink" fill="none" version="1.1"><g id="shape-12893237-054c-8056-8008-56fa6a317e58"><defs><clipPath id="frame-clip-12893237-054c-8056-8008-56fa6a317e58-render-27" class="frame-clip frame-clip-def"><rect rx="0" ry="0" x="0" y="0" width="1080" height="1080" transform="matrix(1.000000, 0.000000, 0.000000, 1.000000, 0.000000, 0.000000)"/></clipPath></defs><g class="frame-container-wrapper"><g class="frame-container-blur"><g class="frame-container-shadows"><g clip-path="url(#frame-clip-12893237-054c-8056-8008-56fa6a317e58-render-27)" fill="none"><g class="fills" id="fills-12893237-054c-8056-8008-56fa6a317e58"><rect width="1080" height="1080" class="frame-background" x="0" transform="matrix(1.000000, 0.000000, 0.000000, 1.000000, 0.000000, 0.000000)" style="fill: rgb(255, 255, 255); fill-opacity: 1;" ry="0" rx="0" y="0"/></g><g class="frame-children"><g id="shape-a38fdc8b-457b-80ae-8008-56ffb56d024f"><g class="frame-container-wrapper"><g class="frame-container-blur"><defs><filter id="filter-shadow-render-28" x="-0.09722222222222222" y="-0.09722222222222222" width="1.2055555555555555" height="1.2222222222222223" filterUnits="objectBoundingBox" color-interpolation-filters="sRGB"><feFlood flood-opacity="0" result="BackgroundImageFix"/><feColorMatrix in="SourceAlpha" type="matrix" values="0 0 0 0 0 0 0 0 0 0 0 0 0 0 0 0 0 0 127 0"/><feOffset dx="4" dy="10"/><feGaussianBlur stdDeviation="15"/><feColorMatrix type="matrix" values="0 0 0 0 0 0 0 0 0 0 0 0 0 0 0 0 0 0 0.3 0"/><feBlend mode="normal" in2="BackgroundImageFix" result="filter_6bd37016-aca4-80cc-8008-57055150a2f0"/><feBlend mode="normal" in="SourceGraphic" in2="filter_6bd37016-aca4-80cc-8008-57055150a2f0" result="shape"/></filter></defs><g class="frame-container-shadows" filter="url(#filter-shadow-render-28)"><g fill="none"><g class="fills" id="fills-a38fdc8b-457b-80ae-8008-56ffb56d024f"><rect rx="0" ry="0" x="0" y="0" width="1080" height="1080" transform="matrix(1.000000, 0.000000, 0.000000, 1.000000, 0.000000, 0.000000)" class="frame-background"/></g><g class="frame-children"><g id="shape-6bd37016-aca4-80cc-8008-57047d099f79"><g class="frame-container-wrapper"><g class="frame-container-blur"><g class="frame-container-shadows"><g fill="none"><g class="fills" id="fills-6bd37016-aca4-80cc-8008-57047d099f79"><rect rx="0" ry="0" x="275" y="274.99999999999994" width="530" height="530" transform="matrix(1.000000, 0.000000, 0.000000, 1.000000, 0.000000, 0.000000)" class="frame-background"/></g><g class="frame-children"><g id="shape-6bd37016-aca4-80cc-8008-57028d4f9989" style="opacity: 1;"><g class="fills" id="fills-6bd37016-aca4-80cc-8008-57028d4f9989"><path d="M437.5,325L437.5,525L362.5,525L362.5,325L275,325L275,275L525,275L525,325L437.5,325L437.5,325" style="fill: rgb(255, 0, 97); fill-opacity: 1;"/></g><g id="strokes-a8c50ae5-2201-80bd-8008-571bfddba78d-6bd37016-aca4-80cc-8008-57028d4f9989" class="strokes"><g class="stroke-shape"><path d="M437.5,325L437.5,525L362.5,525L362.5,325L275,325L275,275L525,275L525,325L437.5,325L437.5,325" style="fill: none; stroke-width: 0; stroke: rgb(0, 0, 0); stroke-opacity: 1;"/></g></g></g><g id="shape-6bd37016-aca4-80cc-8008-570325f7ab15" style="opacity: 1;"><g class="fills" id="fills-6bd37016-aca4-80cc-8008-570325f7ab15"><path d="M525,555L525,805L447.1311340332031,805L348.7705078125,655L348.7705078125,805L275,805L275,555L352.8688659667969,555L451.2294921875,705L451.2294921875,555L525,555L525,555" style="fill: rgb(255, 0, 97); fill-opacity: 1;"/></g><g id="strokes-a8c50ae5-2201-80bd-8008-571bfddc1098-6bd37016-aca4-80cc-8008-570325f7ab15" class="strokes"><g class="stroke-shape"><path d="M525,555L525,805L447.1311340332031,805L348.7705078125,655L348.7705078125,805L275,805L275,555L352.8688659667969,555L451.2294921875,705L451.2294921875,555L525,555L525,555" style="fill: none; stroke-width: 0; stroke: rgb(0, 0, 0); stroke-opacity: 1;"/></g></g></g><g id="shape-6bd37016-aca4-80cc-8008-57032af46482" style="opacity: 1;"><g class="fills" id="fills-6bd37016-aca4-80cc-8008-57032af46482"><path d="M733.5714111328125,454.57745361328125L733.5714111328125,275L805,275L805,454.57745361328125C805,479.225341796875,798.7169189453125,497.12432861328125,786.1507568359375,508.274658203125C773.584716796875,519.4248657226562,753.4127197265625,525,725.6348876953125,525L725.6348876953125,525L634.3651123046875,525C606.5872802734375,525,586.415283203125,519.4248657226562,573.8492431640625,508.274658203125C561.2830810546875,497.12432861328125,555,479.225341796875,555,454.57745361328125L555,454.57745361328125L555,275L626.4285888671875,275L626.4285888671875,454.57745361328125C626.4285888671875,468.6619567871094,634.3651123046875,475.7042236328125,650.2380981445312,475.7042236328125L650.2380981445312,475.7042236328125L709.7619018554688,475.7042236328125C725.6348876953125,475.7042236328125,733.5714111328125,468.6619567871094,733.5714111328125,454.57745361328125L733.5714111328125,454.57745361328125L733.5714111328125,454.57745361328125" style="fill: rgb(255, 0, 97); fill-opacity: 1;"/></g><g id="strokes-a8c50ae5-2201-80bd-8008-571bfdde0fd9-6bd37016-aca4-80cc-8008-57032af46482" class="strokes"><g class="stroke-shape"><path d="M733.5714111328125,454.57745361328125L733.5714111328125,275L805,275L805,454.57745361328125C805,479.225341796875,798.7169189453125,497.12432861328125,786.1507568359375,508.274658203125C773.584716796875,519.4248657226562,753.4127197265625,525,725.6348876953125,525L725.6348876953125,525L634.3651123046875,525C606.5872802734375,525,586.415283203125,519.4248657226562,573.8492431640625,508.274658203125C561.2830810546875,497.12432861328125,555,479.225341796875,555,454.57745361328125L555,454.57745361328125L555,275L626.4285888671875,275L626.4285888671875,454.57745361328125C626.4285888671875,468.6619567871094,634.3651123046875,475.7042236328125,650.2380981445312,475.7042236328125L650.2380981445312,475.7042236328125L709.7619018554688,475.7042236328125C725.6348876953125,475.7042236328125,733.5714111328125,468.6619567871094,733.5714111328125,454.57745361328125L733.5714111328125,454.57745361328125L733.5714111328125,454.57745361328125" style="fill: none; stroke-width: 0; stroke: rgb(0, 0, 0); stroke-opacity: 1;"/></g></g></g><g id="shape-6bd37016-aca4-80cc-8008-57032d268e05" style="opacity: 1;"><g class="fills" id="fills-6bd37016-aca4-80cc-8008-57032d268e05"><path d="M805,755L805,805L555,805L555,555L805,555L805,605L636.0810546875,605L636.0810546875,653.2142333984375L768.9639892578125,653.2142333984375L768.9639892578125,703.2142944335938L636.0810546875,703.2142944335938L636.0810546875,755L805,755L805,755" style="fill: rgb(255, 0, 97); fill-opacity: 1;"/></g><g id="strokes-a8c50ae5-2201-80bd-8008-571bfde03d22-6bd37016-aca4-80cc-8008-57032d268e05" class="strokes"><g class="stroke-shape"><path d="M805,755L805,805L555,805L555,555L805,555L805,605L636.0810546875,605L636.0810546875,653.2142333984375L768.9639892578125,653.2142333984375L768.9639892578125,703.2142944335938L636.0810546875,703.2142944335938L636.0810546875,755L805,755L805,755" style="fill: none; stroke-width: 0; stroke: rgb(0, 0, 0); stroke-opacity: 1;"/></g></g></g></g></g></g></g></g></g></g></g></g></g></g></g></g></g></g></g></g></g></svg>