<svg width="1080" xmlns="http://www.w3.org/2000/svg" height="1049" id="screenshot-586a5e30-c2ab-8097-8008-571b4f2258e0" viewBox="0 0 1080 1049" xmlns:xlink="http://www.w3.org/1999/xlink" fill="none" version="1.1"><g id="shape-586a5e30-c2ab-8097-8008-571b4f2258e0"><defs><clipPath id="frame-clip-586a5e30-c2ab-8097-8008-571b4f2258e0-render-1" class="frame-clip frame-clip-def"><rect rx="0" ry="0" x="0" y="0" width="1080" height="1049" transform="matrix(1.000000, 0.000000, 0.000000, 1.000000, 0.000000, 0.000000)"/></clipPath></defs><g class="frame-container-wrapper"><g class="frame-container-blur"><g class="frame-container-shadows"><g clip-path="url(#frame-clip-586a5e30-c2ab-8097-8008-571b4f2258e0-render-1)" fill="none"><g class="fills" id="fills-586a5e30-c2ab-8097-8008-571b4f2258e0"><rect width="1080" height="1049" class="frame-background" x="0" transform="matrix(1.000000, 0.000000, 0.000000, 1.000000, 0.000000, 0.000000)" style="fill: rgb(255, 255, 255); fill-opacity: 1;" ry="0" rx="0" y="0"/></g><g class="frame-children"><g id="shape-586a5e30-c2ab-8097-8008-571b86863cd1"><g class="frame-container-wrapper"><g class="frame-container-blur"><defs><filter id="filter-shadow-render-2" x="-0.19811320754716982" y="-0.19811320754716982" width="1.4188679245283018" height="1.4528301886792452" filterUnits="objectBoundingBox" color-interpolation-filters="sRGB"><feFlood flood-opacity="0" result="BackgroundImageFix"/><feColorMatrix in="SourceAlpha" type="matrix" values="0 0 0 0 0 0 0 0 0 0 0 0 0 0 0 0 0 0 127 0"/><feOffset dx="4" dy="10"/><feGaussianBlur stdDeviation="15"/><feColorMatrix type="matrix" values="0 0 0 0 0 0 0 0 0 0 0 0 0 0 0 0 0 0 0.3 0"/><feBlend mode="normal" in2="BackgroundImageFix" result="filter_586a5e30-c2ab-8097-8008-571b99b3d153"/><feBlend mode="normal" in="SourceGraphic" in2="filter_586a5e30-c2ab-8097-8008-571b99b3d153" result="shape"/></filter></defs><g class="frame-container-shadows" filter="url(#filter-shadow-render-2)"><g fill="none"><g class="fills" id="fills-586a5e30-c2ab-8097-8008-571b86863cd1"><rect rx="0" ry="0" x="275" y="258.0000000000002" width="530" height="530" transform="matrix(1.000000, 0.000000, 0.000000, 1.000000, 0.000000, 0.000000)" class="frame-background"/></g><g class="frame-children"><g id="shape-586a5e30-c2ab-8097-8008-571b86863cd5" style="opacity: 1;"><g class="fills" id="fills-586a5e30-c2ab-8097-8008-571b86863cd5"><path d="M437.5,308L437.5,508L362.5,508L362.5,308L275,308L275,258L525,258L525,308L437.5,308L437.5,308" style="fill: rgb(255, 0, 97); fill-opacity: 1;"/></g><g id="strokes-a8c50ae5-2201-80bd-8008-571bfdb14539-586a5e30-c2ab-8097-8008-571b86863cd5" class="strokes"><g class="stroke-shape"><path d="M437.5,308L437.5,508L362.5,508L362.5,308L275,308L275,258L525,258L525,308L437.5,308L437.5,308" style="fill: none; stroke-width: 0; stroke: rgb(0, 0, 0); stroke-opacity: 1;"/></g></g></g><g id="shape-586a5e30-c2ab-8097-8008-571b86863cd4" style="opacity: 1;"><g class="fills" id="fills-586a5e30-c2ab-8097-8008-571b86863cd4"><path d="M525,538L525,788L447.131103515625,788L348.7705078125,638L348.7705078125,788L275,788L275,538L352.868896484375,538L451.2294921875,688L451.2294921875,538L525,538L525,538" style="fill: rgb(255, 0, 97); fill-opacity: 1;"/></g><g id="strokes-a8c50ae5-2201-80bd-8008-571bfdb62350-586a5e30-c2ab-8097-8008-571b86863cd4" class="strokes"><g class="stroke-shape"><path d="M525,538L525,788L447.131103515625,788L348.7705078125,638L348.7705078125,788L275,788L275,538L352.868896484375,538L451.2294921875,688L451.2294921875,538L525,538L525,538" style="fill: none; stroke-width: 0; stroke: rgb(0, 0, 0); stroke-opacity: 1;"/></g></g></g><g id="shape-586a5e30-c2ab-8097-8008-571b86863cd3" style="opacity: 1;"><g class="fills" id="fills-586a5e30-c2ab-8097-8008-571b86863cd3"><path d="M733.5714111328125,437.577392578125L733.5714111328125,258L805,258L805,437.577392578125C805,462.225341796875,798.7169189453125,480.124267578125,786.1507568359375,491.274658203125C773.584716796875,502.4248046875,753.4127197265625,508,725.6348876953125,508L725.6348876953125,508L634.3651123046875,508C606.5872802734375,508,586.415283203125,502.4248046875,573.8492431640625,491.274658203125C561.2830810546875,480.124267578125,555,462.225341796875,555,437.577392578125L555,437.577392578125L555,258L626.4285888671875,258L626.4285888671875,437.577392578125C626.4285888671875,451.6619873046875,634.3651123046875,458.7042236328125,650.2380981445312,458.7042236328125L650.2380981445312,458.7042236328125L709.7619018554688,458.7042236328125C725.6348876953125,458.7042236328125,733.5714111328125,451.6619873046875,733.5714111328125,437.577392578125L733.5714111328125,437.577392578125L733.5714111328125,437.577392578125" style="fill: rgb(255, 0, 97); fill-opacity: 1;"/></g><g id="strokes-a8c50ae5-2201-80bd-8008-571bfdba1d4d-586a5e30-c2ab-8097-8008-571b86863cd3" class="strokes"><g class="stroke-shape"><path d="M733.5714111328125,437.577392578125L733.5714111328125,258L805,258L805,437.577392578125C805,462.225341796875,798.7169189453125,480.124267578125,786.1507568359375,491.274658203125C773.584716796875,502.4248046875,753.4127197265625,508,725.6348876953125,508L725.6348876953125,508L634.3651123046875,508C606.5872802734375,508,586.415283203125,502.4248046875,573.8492431640625,491.274658203125C561.2830810546875,480.124267578125,555,462.225341796875,555,437.577392578125L555,437.577392578125L555,258L626.4285888671875,258L626.4285888671875,437.577392578125C626.4285888671875,451.6619873046875,634.3651123046875,458.7042236328125,650.2380981445312,458.7042236328125L650.2380981445312,458.7042236328125L709.7619018554688,458.7042236328125C725.6348876953125,458.7042236328125,733.5714111328125,451.6619873046875,733.5714111328125,437.577392578125L733.5714111328125,437.577392578125L733.5714111328125,437.577392578125" style="fill: none; stroke-width: 0; stroke: rgb(0, 0, 0); stroke-opacity: 1;"/></g></g></g><g id="shape-586a5e30-c2ab-8097-8008-571b86863cd2" style="opacity: 1;"><g class="fills" id="fills-586a5e30-c2ab-8097-8008-571b86863cd2"><path d="M805,738L805,788L555,788L555,538L805,538L805,588L636.0810546875,588L636.0810546875,636.2142333984375L768.9639892578125,636.2142333984375L768.9639892578125,686.2142944335938L636.0810546875,686.2142944335938L636.0810546875,738L805,738L805,738" style="fill: rgb(255, 0, 97); fill-opacity: 1;"/></g><g id="strokes-a8c50ae5-2201-80bd-8008-571bfdbcf4dc-586a5e30-c2ab-8097-8008-571b86863cd2" class="strokes"><g class="stroke-shape"><path d="M805,738L805,788L555,788L555,538L805,538L805,588L636.0810546875,588L636.0810546875,636.2142333984375L768.9639892578125,636.2142333984375L768.9639892578125,686.2142944335938L636.0810546875,686.2142944335938L636.0810546875,738L805,738L805,738" style="fill: none; stroke-width: 0; stroke: rgb(0, 0, 0); stroke-opacity: 1;"/></g></g></g></g></g></g></g></g></g></g></g></g></g></g></g></svg>