<svg width="826" xmlns="http://www.w3.org/2000/svg" height="850" id="screenshot-586a5e30-c2ab-8097-8008-571b86863cd1" viewBox="-136 -130 826 850" xmlns:xlink="http://www.w3.org/1999/xlink" fill="none" version="1.1"><g id="shape-586a5e30-c2ab-8097-8008-571b86863cd1"><g class="frame-container-wrapper"><g class="frame-container-blur"><defs><filter id="filter-shadow-render-1" x="-0.19811320754716982" y="-0.19811320754716982" width="1.4188679245283018" height="1.4528301886792452" filterUnits="objectBoundingBox" color-interpolation-filters="sRGB"><feFlood flood-opacity="0" result="BackgroundImageFix"/><feColorMatrix in="SourceAlpha" type="matrix" values="0 0 0 0 0 0 0 0 0 0 0 0 0 0 0 0 0 0 127 0"/><feOffset dx="4" dy="10"/><feGaussianBlur stdDeviation="15"/><feColorMatrix type="matrix" values="0 0 0 0 0 0 0 0 0 0 0 0 0 0 0 0 0 0 0.3 0"/><feBlend mode="normal" in2="BackgroundImageFix" result="filter_586a5e30-c2ab-8097-8008-571b99b3d153"/><feBlend mode="normal" in="SourceGraphic" in2="filter_586a5e30-c2ab-8097-8008-571b99b3d153" result="shape"/></filter></defs><g class="frame-container-shadows" filter="url(#filter-shadow-render-1)"><g fill="none"><g class="fills" id="fills-586a5e30-c2ab-8097-8008-571b86863cd1"><rect rx="0" ry="0" x="0" y="0" width="530" height="530" transform="matrix(1.000000, 0.000000, 0.000000, 1.000000, 0.000000, 0.000000)" class="frame-background"/></g><g class="frame-children"><g id="shape-586a5e30-c2ab-8097-8008-571b86863cd5" style="opacity: 1;"><g class="fills" id="fills-586a5e30-c2ab-8097-8008-571b86863cd5"><path d="M162.5,50L162.5,250L87.5,250L87.5,50L0,50L0,0L250,0L250,50L162.5,50L162.5,50" style="fill: rgb(255, 0, 97); fill-opacity: 1;"/></g><g id="strokes-ce552275-7e6f-8080-8008-571c9c3199fb-586a5e30-c2ab-8097-8008-571b86863cd5" class="strokes"><g class="stroke-shape"><path d="M162.5,50L162.5,250L87.5,250L87.5,50L0,50L0,0L250,0L250,50L162.5,50L162.5,50" style="fill: none; stroke-width: 0; stroke: rgb(0, 0, 0); stroke-opacity: 1;"/></g></g></g><g id="shape-586a5e30-c2ab-8097-8008-571b86863cd4" style="opacity: 1;"><g class="fills" id="fills-586a5e30-c2ab-8097-8008-571b86863cd4"><path d="M250,280L250,530L172.131103515625,530L73.7705078125,380L73.7705078125,530L0,530L0,280L77.868896484375,280L176.2294921875,430L176.2294921875,280L250,280L250,280" style="fill: rgb(255, 0, 97); fill-opacity: 1;"/></g><g id="strokes-ce552275-7e6f-8080-8008-571c9c330739-586a5e30-c2ab-8097-8008-571b86863cd4" class="strokes"><g class="stroke-shape"><path d="M250,280L250,530L172.131103515625,530L73.7705078125,380L73.7705078125,530L0,530L0,280L77.868896484375,280L176.2294921875,430L176.2294921875,280L250,280L250,280" style="fill: none; stroke-width: 0; stroke: rgb(0, 0, 0); stroke-opacity: 1;"/></g></g></g><g id="shape-586a5e30-c2ab-8097-8008-571b86863cd3" style="opacity: 1;"><g class="fills" id="fills-586a5e30-c2ab-8097-8008-571b86863cd3"><path d="M458.5714111328125,179.577392578125L458.5714111328125,0L530,0L530,179.577392578125C530,204.225341796875,523.7169189453125,222.124267578125,511.1507568359375,233.274658203125C498.584716796875,244.4248046875,478.4127197265625,250,450.6348876953125,250L450.6348876953125,250L359.3651123046875,250C331.5872802734375,250,311.415283203125,244.4248046875,298.8492431640625,233.274658203125C286.2830810546875,222.124267578125,280,204.225341796875,280,179.577392578125L280,179.577392578125L280,0L351.4285888671875,0L351.4285888671875,179.577392578125C351.4285888671875,193.6619873046875,359.3651123046875,200.7042236328125,375.23809814453125,200.7042236328125L375.23809814453125,200.7042236328125L434.76190185546875,200.7042236328125C450.6348876953125,200.7042236328125,458.5714111328125,193.6619873046875,458.5714111328125,179.577392578125L458.5714111328125,179.577392578125L458.5714111328125,179.577392578125" style="fill: rgb(255, 0, 97); fill-opacity: 1;"/></g><g id="strokes-ce552275-7e6f-8080-8008-571c9c345ec5-586a5e30-c2ab-8097-8008-571b86863cd3" class="strokes"><g class="stroke-shape"><path d="M458.5714111328125,179.577392578125L458.5714111328125,0L530,0L530,179.577392578125C530,204.225341796875,523.7169189453125,222.124267578125,511.1507568359375,233.274658203125C498.584716796875,244.4248046875,478.4127197265625,250,450.6348876953125,250L450.6348876953125,250L359.3651123046875,250C331.5872802734375,250,311.415283203125,244.4248046875,298.8492431640625,233.274658203125C286.2830810546875,222.124267578125,280,204.225341796875,280,179.577392578125L280,179.577392578125L280,0L351.4285888671875,0L351.4285888671875,179.577392578125C351.4285888671875,193.6619873046875,359.3651123046875,200.7042236328125,375.23809814453125,200.7042236328125L375.23809814453125,200.7042236328125L434.76190185546875,200.7042236328125C450.6348876953125,200.7042236328125,458.5714111328125,193.6619873046875,458.5714111328125,179.577392578125L458.5714111328125,179.577392578125L458.5714111328125,179.577392578125" style="fill: none; stroke-width: 0; stroke: rgb(0, 0, 0); stroke-opacity: 1;"/></g></g></g><g id="shape-586a5e30-c2ab-8097-8008-571b86863cd2" style="opacity: 1;"><g class="fills" id="fills-586a5e30-c2ab-8097-8008-571b86863cd2"><path d="M530,480L530,530L280,530L280,280L530,280L530,330L361.0810546875,330L361.0810546875,378.2142333984375L493.9639892578125,378.2142333984375L493.9639892578125,428.21429443359375L361.0810546875,428.21429443359375L361.0810546875,480L530,480L530,480" style="fill: rgb(255, 0, 97); fill-opacity: 1;"/></g><g id="strokes-ce552275-7e6f-8080-8008-571c9c35852f-586a5e30-c2ab-8097-8008-571b86863cd2" class="strokes"><g class="stroke-shape"><path d="M530,480L530,530L280,530L280,280L530,280L530,330L361.0810546875,330L361.0810546875,378.2142333984375L493.9639892578125,378.2142333984375L493.9639892578125,428.21429443359375L361.0810546875,428.21429443359375L361.0810546875,480L530,480L530,480" style="fill: none; stroke-width: 0; stroke: rgb(0, 0, 0); stroke-opacity: 1;"/></g></g></g></g></g></g></g></g></g></svg>