<svg xmlns="http://www.w3.org/2000/svg" xmlns:xlink="http://www.w3.org/1999/xlink" version="1.1" width="256" height="256" viewBox="0 0 256 256" xml:space="preserve">
<g style="stroke: none; stroke-width: 0; stroke-dasharray: none; stroke-linecap: butt; stroke-linejoin: miter; stroke-miterlimit: 10; fill: none; fill-rule: nonzero; opacity: 1;" transform="translate(1.4065934065934016 1.4065934065934016) scale(2.81 2.81)">
	<path d="M 89.404 0.596 c -0.559 -0.559 -1.433 -0.801 -2.288 -0.391 L 1.504 41.248 c -1.821 0.873 -2.044 3.364 -0.362 4.041 l 25.589 10.293 c 1.751 0.704 3.32 1.75 4.628 3.058 C 52.293 43.882 71.426 23.911 89.404 0.596 z" style="stroke: none; stroke-width: 1; stroke-dasharray: none; stroke-linecap: butt; stroke-linejoin: miter; stroke-miterlimit: 10; fill: rgb(31,154,128); fill-rule: nonzero; opacity: 1;" transform=" matrix(1 0 0 1 0 0) " stroke-linecap="round"/>
	<path d="M 89.404 0.596 c 0.559 0.559 0.801 1.433 0.391 2.288 L 48.752 88.496 c -0.873 1.821 -3.364 2.044 -4.041 0.362 L 34.417 63.269 c -0.704 -1.751 -1.75 -3.32 -3.058 -4.628 L 89.404 0.596 z" style="stroke: none; stroke-width: 1; stroke-dasharray: none; stroke-linecap: butt; stroke-linejoin: miter; stroke-miterlimit: 10; fill: rgb(38,185,154); fill-rule: nonzero; opacity: 1;" transform=" matrix(1 0 0 1 0 0) " stroke-linecap="round"/>
</g>
</svg>